<?xml version="1.0" standalone="no"?><!DOCTYPE svg PUBLIC "-//W3C//DTD SVG 1.1//EN" "http://www.w3.org/Graphics/SVG/1.1/DTD/svg11.dtd"><svg t="1706237737398" class="icon" viewBox="0 0 1134 1024" version="1.1" xmlns="http://www.w3.org/2000/svg" p-id="8075" xmlns:xlink="http://www.w3.org/1999/xlink" width="221.484375" height="200"><path d="M335.331603 105.063855s69.986626 23.832376 120.336716 4.195841 89.455327-33.566727 128.560564-44.643747 71.329295-18.293866 71.329295-18.293866 15.440694 22.489707-8.391682 65.790785a416.395248 416.395248 0 0 1-72.671964 102.04285c-20.979204 18.293866-28.028217 37.762568-39.105237 29.370886s-20.979204-26.517714-29.370886-18.126032-4.195841 43.301078 9.734351 37.762568 33.566727-20.979204 49.007421 13.930191 50.35009 109.091863 29.370887 190.323342-61.594944 103.385519-207.106706 89.455328a1090.918627 1090.918627 0 0 1 104.896022 41.958408c32.224058 16.783363 44.811581 18.126033 72.839797-9.73435a277.932499 277.932499 0 0 0 67.133454-190.323342c0-94.993837 0-124.364723-18.293866-144.001259s18.293866-40.61574 50.350091-78.378308 54.545931-62.937613 57.399103-76.867804 5.53851-11.244854 18.126032-7.049013 41.958409-4.195841 41.958409-23.664543-9.734351-20.979204-25.175045-30.881389a573.151863 573.151863 0 0 0-47.496919-33.566726 46.825584 46.825584 0 0 0-51.692759 8.391681l-12.587523 12.587523a89.790995 89.790995 0 0 1-51.860593 20.979204c-27.860383 0-170.518973 61.594944-257.288962 58.741772z" p-id="8076" fill="#c4bb12"></path><path d="M135.27391 444.926966s99.357512 11.244854 152.560774-5.53851 181.763827-41.958409 247.554611-55.8886 138.462749-28.028217 163.637794-33.566727 109.091863-19.636535 27.860384 16.783363-190.155508 128.560564-237.652427 173.372145c0 0 139.805418-124.532557 234.967089-156.588781s162.127291-44.811581 193.00868-44.811581 33.566727-12.587523 19.468701-20.979204-33.566727-8.391682-57.231269-23.832376-28.028217-6.881179-41.958409 4.195841-16.783363 19.636535-98.014843 32.224058-276.925498 40.61574-353.793302 62.937613S174.54698 446.437469 135.27391 444.926966zM370.240999 669.152702s-46.15425 38.76957-47.161252 70.322293 0 50.35009 14.76936 61.762778 20.979204 13.762358 24.00021 35.748564a74.182467 74.182467 0 0 0 38.937403 52.364094 167.833635 167.833635 0 0 1 43.972413 27.356883c10.573519 10.405685 21.986206 2.014004 13.594524-15.776362s-47.161251-35.580731-51.357092-53.538929-37.762568-24.00021-49.343089-44.979414-47.161251-70.322293 12.587523-133.259907z" p-id="8077" fill="#c4bb12"></path><path d="M351.443632 740.481997s52.364094-12.587523 83.916817-20.979204 115.301707-40.951407 159.441953-53.53893 190.826843-34.573729 228.589411-5.202842 16.783363 104.896022-16.783364 148.868434a417.066583 417.066583 0 0 1-136.280911 109.091862 142.322922 142.322922 0 0 1-101.707183-3.021005 109.763197 109.763197 0 0 0 88.112658 19.804369 565.095849 565.095849 0 0 0 139.469751-63.944615c22.993208-16.783363 69.147458-83.916817 78.713975-101.707183a192.169512 192.169512 0 0 1 38.769569-41.958408c8.391682-8.391682-12.587523-24.168043-28.363884-33.566727s-30.377888-47.161251-98.518344-55.552934-200.39336 8.391682-272.729656 31.38489-144.840427 65.11945-162.630792 70.322293z" p-id="8078" fill="#c4bb12"></path><path d="M455.332652 705.908268a227.582409 227.582409 0 0 0-6.377679 92.3085c8.391682 41.958409 27.356882 88.112658 50.350091 86.937823s11.580521-31.38489 4.195841-40.783574-49.343089-35.748564-48.168253-138.462749zM600.005245 681.740225a62.601946 62.601946 0 0 1 13.594524 60.755776c-9.398684 39.944405-13.594524 120.672383-120.50455 179.414156a638.942648 638.942648 0 0 1 64.951617-22.993208c7.38468 0 37.762568-26.349881 63.944615-78.713975s30.545722-61.930611 35.748564-81.902814-6.377678-25.175045-20.979204-33.566727-36.755566-22.993208-36.755566-22.993208zM0 1009.015813s61.930611 17.790365 76.532138 14.601526a3384.533082 3384.533082 0 0 1 482.5217-88.783993 2500.72116 2500.72116 0 0 1 389.206199-3.188839 174.043479 174.043479 0 0 1 98.686178 41.958409c32.391892 32.559725 43.972412 41.958409 55.552933 41.958409s35.580731-2.014004 31.384889-18.797367-33.566727-35.748564-55.552933-48.336087-32.559725-28.196051-50.35009-37.762568-43.972412-21.986206-61.930611-8.391682-43.972412 17.958199-92.3085 15.776362a2295.124957 2295.124957 0 0 0-335.667269 7.38468 4123.336742 4123.336742 0 0 0-417.402251 67.133454 671.33454 671.33454 0 0 1-120.672383 16.447696z" p-id="8079" fill="#c4bb12"></path></svg>